<mxfile host="Electron" modified="2023-10-18T01:24:47.510Z" agent="Mozilla/5.0 (Windows NT 10.0; Win64; x64) AppleWebKit/537.36 (KHTML, like Gecko) draw.io/22.0.0 Chrome/114.0.5735.289 Electron/25.8.3 Safari/537.36" etag="VKmcPqe1xZ6N6dAMbpM4" version="22.0.0" type="device">
  <diagram id="tcJoGeuxI8kGtLN16Q2e" name="Página-1">
    <mxGraphModel dx="9134" dy="2285" grid="0" gridSize="10" guides="1" tooltips="1" connect="1" arrows="1" fold="1" page="1" pageScale="1" pageWidth="1169" pageHeight="827" math="0" shadow="0">
      <root>
        <mxCell id="0" />
        <mxCell id="1" parent="0" />
        <mxCell id="ONzNmWFKcciWtL8QYSna-1" value="visualiza painel de senhas e busca pedido entregando a senha impressa para o atendente" style="rounded=0;whiteSpace=wrap;html=1;fontSize=25;strokeWidth=3;fillColor=#01bcd2;strokeColor=default;" vertex="1" parent="1">
          <mxGeometry x="7900" y="705.25" width="200" height="200" as="geometry" />
        </mxCell>
        <mxCell id="ONzNmWFKcciWtL8QYSna-2" value="Atualizar status do pedido no painel" style="rounded=0;whiteSpace=wrap;html=1;fontSize=25;strokeWidth=3;fillColor=#01bcd2;strokeColor=default;" vertex="1" parent="1">
          <mxGeometry x="7320" y="700.75" width="200" height="200" as="geometry" />
        </mxCell>
        <mxCell id="ONzNmWFKcciWtL8QYSna-3" value="executar pedido" style="rounded=0;whiteSpace=wrap;html=1;fontSize=25;strokeWidth=3;fillColor=#01bcd2;strokeColor=default;" vertex="1" parent="1">
          <mxGeometry x="6277" y="700.75" width="200" height="200" as="geometry" />
        </mxCell>
        <mxCell id="ONzNmWFKcciWtL8QYSna-4" value="Atualizar status do pedido no painel" style="rounded=0;whiteSpace=wrap;html=1;fontSize=25;strokeWidth=3;fillColor=#01bcd2;strokeColor=default;" vertex="1" parent="1">
          <mxGeometry x="5685" y="691.5" width="200" height="200" as="geometry" />
        </mxCell>
        <mxCell id="ONzNmWFKcciWtL8QYSna-5" value="Atilizou senha do pedido para &quot;EM PREPARO&quot;" style="rounded=0;whiteSpace=wrap;html=1;fontSize=25;strokeWidth=3;fillColor=#f2a413;strokeColor=#000000;fontStyle=0" vertex="1" parent="1">
          <mxGeometry x="5897" y="693" width="216.5" height="203" as="geometry" />
        </mxCell>
        <mxCell id="ONzNmWFKcciWtL8QYSna-6" value="Atualizar status do pedido" style="rounded=0;whiteSpace=wrap;html=1;fontSize=25;strokeWidth=3;fillColor=#01bcd2;strokeColor=default;" vertex="1" parent="1">
          <mxGeometry x="4126" y="696" width="200" height="200" as="geometry" />
        </mxCell>
        <mxCell id="ONzNmWFKcciWtL8QYSna-7" value="emitir &lt;br&gt;pedido para cozinha" style="rounded=0;whiteSpace=wrap;html=1;fontSize=25;strokeWidth=3;fillColor=#01bcd2;strokeColor=default;" vertex="1" parent="1">
          <mxGeometry x="3610" y="696" width="200" height="200" as="geometry" />
        </mxCell>
        <mxCell id="ONzNmWFKcciWtL8QYSna-8" value="exibir comprovante e impressão" style="rounded=0;whiteSpace=wrap;html=1;fontSize=25;strokeWidth=3;fillColor=#01bcd2;strokeColor=default;" vertex="1" parent="1">
          <mxGeometry x="1654" y="688" width="200" height="200" as="geometry" />
        </mxCell>
        <mxCell id="ONzNmWFKcciWtL8QYSna-9" value="exibir tela de pagamento" style="rounded=0;whiteSpace=wrap;html=1;fontSize=25;strokeWidth=3;fillColor=#01bcd2;strokeColor=default;" vertex="1" parent="1">
          <mxGeometry x="600" y="686" width="200" height="200" as="geometry" />
        </mxCell>
        <mxCell id="ONzNmWFKcciWtL8QYSna-10" value="exibir tela de revisão" style="rounded=0;whiteSpace=wrap;html=1;fontSize=25;strokeWidth=3;fillColor=#01bcd2;strokeColor=default;" vertex="1" parent="1">
          <mxGeometry x="-465" y="686" width="200" height="200" as="geometry" />
        </mxCell>
        <mxCell id="ONzNmWFKcciWtL8QYSna-11" value="cria o carrinho" style="rounded=0;whiteSpace=wrap;html=1;fontSize=25;strokeWidth=3;fillColor=#01bcd2;strokeColor=default;" vertex="1" parent="1">
          <mxGeometry x="-953" y="683.25" width="200" height="200" as="geometry" />
        </mxCell>
        <mxCell id="ONzNmWFKcciWtL8QYSna-12" value="exibir ofertas&lt;br&gt;promocionais&lt;br&gt;e menu" style="rounded=0;whiteSpace=wrap;html=1;fontSize=25;strokeWidth=3;fillColor=#01bcd2;strokeColor=default;" vertex="1" parent="1">
          <mxGeometry x="-2011" y="680" width="200" height="200" as="geometry" />
        </mxCell>
        <mxCell id="ONzNmWFKcciWtL8QYSna-13" style="edgeStyle=orthogonalEdgeStyle;rounded=0;orthogonalLoop=1;jettySize=auto;html=1;entryX=0;entryY=0.5;entryDx=0;entryDy=0;" edge="1" parent="1" source="ONzNmWFKcciWtL8QYSna-14" target="ONzNmWFKcciWtL8QYSna-16">
          <mxGeometry relative="1" as="geometry" />
        </mxCell>
        <mxCell id="ONzNmWFKcciWtL8QYSna-14" value="exibiu oferta promocional e menu tradicional" style="rounded=0;whiteSpace=wrap;html=1;fontSize=25;strokeWidth=3;fillColor=#f2a413;fontStyle=0;strokeColor=#000000;" vertex="1" parent="1">
          <mxGeometry x="-1799" y="682" width="200" height="200" as="geometry" />
        </mxCell>
        <mxCell id="ONzNmWFKcciWtL8QYSna-15" value="validar campos obrigatórios" style="rounded=0;whiteSpace=wrap;html=1;fontSize=25;strokeWidth=3;fillColor=#01bcd2;strokeColor=default;" vertex="1" parent="1">
          <mxGeometry x="-3072" y="679" width="200" height="200" as="geometry" />
        </mxCell>
        <mxCell id="ONzNmWFKcciWtL8QYSna-16" value="escolher pedido" style="rounded=0;whiteSpace=wrap;html=1;fontSize=25;strokeWidth=3;fillColor=#01bcd2;strokeColor=default;" vertex="1" parent="1">
          <mxGeometry x="-1479.99" y="683.25" width="200" height="200" as="geometry" />
        </mxCell>
        <mxCell id="ONzNmWFKcciWtL8QYSna-17" value="confirmou&lt;br&gt;cadastro" style="rounded=0;whiteSpace=wrap;html=1;fontSize=25;strokeWidth=3;fillColor=#f2a413;strokeColor=default;" vertex="1" parent="1">
          <mxGeometry x="-2315" y="678.5" width="200" height="200" as="geometry" />
        </mxCell>
        <mxCell id="ONzNmWFKcciWtL8QYSna-18" value="redireciona para&amp;nbsp;&lt;br style=&quot;border-color: var(--border-color);&quot;&gt;tela de ofertas&lt;br style=&quot;border-color: var(--border-color);&quot;&gt;promocionais" style="rounded=0;whiteSpace=wrap;html=1;fontSize=25;strokeWidth=3;fillColor=#cf89d9;" vertex="1" parent="1">
          <mxGeometry x="-2148" y="541" width="200" height="200" as="geometry" />
        </mxCell>
        <mxCell id="ONzNmWFKcciWtL8QYSna-19" value="confirmar&lt;br&gt;cadastro" style="rounded=0;whiteSpace=wrap;html=1;fontSize=25;strokeWidth=3;fillColor=#01bcd2;strokeColor=default;" vertex="1" parent="1">
          <mxGeometry x="-2529" y="678.5" width="200" height="200" as="geometry" />
        </mxCell>
        <mxCell id="ONzNmWFKcciWtL8QYSna-20" value="recebeu pagamento" style="rounded=0;whiteSpace=wrap;html=1;fontSize=21;strokeWidth=3;fillColor=#f2a413;fontStyle=0;strokeColor=#000000;dashed=1;" vertex="1" parent="1">
          <mxGeometry x="2666" y="1364" width="200" height="200" as="geometry" />
        </mxCell>
        <mxCell id="ONzNmWFKcciWtL8QYSna-21" style="edgeStyle=orthogonalEdgeStyle;rounded=0;orthogonalLoop=1;jettySize=auto;html=1;entryX=0;entryY=0.5;entryDx=0;entryDy=0;strokeColor=#FF0000;dashed=1;" edge="1" parent="1" source="ONzNmWFKcciWtL8QYSna-22" target="ONzNmWFKcciWtL8QYSna-20">
          <mxGeometry relative="1" as="geometry" />
        </mxCell>
        <mxCell id="ONzNmWFKcciWtL8QYSna-22" value="cadastrou pedido&lt;br&gt;no sistema" style="rounded=0;whiteSpace=wrap;html=1;fontSize=21;strokeWidth=3;fillColor=#f2a413;fontStyle=0;strokeColor=#000000;dashed=1;" vertex="1" parent="1">
          <mxGeometry x="2317" y="1364" width="200" height="200" as="geometry" />
        </mxCell>
        <mxCell id="ONzNmWFKcciWtL8QYSna-23" style="edgeStyle=orthogonalEdgeStyle;rounded=0;orthogonalLoop=1;jettySize=auto;html=1;" edge="1" parent="1" source="ONzNmWFKcciWtL8QYSna-24">
          <mxGeometry relative="1" as="geometry">
            <mxPoint x="8440" y="802.25" as="targetPoint" />
          </mxGeometry>
        </mxCell>
        <mxCell id="ONzNmWFKcciWtL8QYSna-24" value="recebeu pedido" style="rounded=0;whiteSpace=wrap;html=1;fontSize=25;strokeWidth=3;fillColor=#f2a413;fontStyle=0;strokeColor=#000000;" vertex="1" parent="1">
          <mxGeometry x="8119" y="702.25" width="200" height="200" as="geometry" />
        </mxCell>
        <mxCell id="ONzNmWFKcciWtL8QYSna-25" style="edgeStyle=orthogonalEdgeStyle;rounded=0;orthogonalLoop=1;jettySize=auto;html=1;entryX=0;entryY=0.5;entryDx=0;entryDy=0;strokeColor=#FF0000;dashed=1;" edge="1" parent="1" source="ONzNmWFKcciWtL8QYSna-26" target="ONzNmWFKcciWtL8QYSna-52">
          <mxGeometry relative="1" as="geometry" />
        </mxCell>
        <mxCell id="ONzNmWFKcciWtL8QYSna-26" value="devolveu pedido" style="rounded=0;whiteSpace=wrap;html=1;fontSize=21;strokeWidth=3;fillColor=#f2a413;fontStyle=0;strokeColor=#000000;dashed=1;" vertex="1" parent="1">
          <mxGeometry x="3229" y="1727" width="200" height="200" as="geometry" />
        </mxCell>
        <mxCell id="ONzNmWFKcciWtL8QYSna-27" style="edgeStyle=orthogonalEdgeStyle;rounded=0;orthogonalLoop=1;jettySize=auto;html=1;" edge="1" parent="1" source="ONzNmWFKcciWtL8QYSna-28" target="ONzNmWFKcciWtL8QYSna-58">
          <mxGeometry relative="1" as="geometry" />
        </mxCell>
        <mxCell id="ONzNmWFKcciWtL8QYSna-28" value="&lt;div style=&quot;font-size: 25px;&quot;&gt;atualizou cadastro de produtos no sistema&lt;/div&gt;" style="rounded=0;whiteSpace=wrap;html=1;fontSize=25;strokeWidth=3;fillColor=#f2a413;fontStyle=0;strokeColor=#FF8000;" vertex="1" parent="1">
          <mxGeometry x="-6169" y="1928" width="200" height="200" as="geometry" />
        </mxCell>
        <mxCell id="ONzNmWFKcciWtL8QYSna-29" value="&lt;div style=&quot;font-size: 25px;&quot;&gt;Exibiu tela de comprovante do pedido e&amp;nbsp;&lt;/div&gt;imprimiu comprovante e senha" style="rounded=0;whiteSpace=wrap;html=1;fontSize=25;strokeWidth=3;fillColor=#f2a413;fontStyle=0;strokeColor=#000000;" vertex="1" parent="1">
          <mxGeometry x="1871" y="688" width="200" height="200" as="geometry" />
        </mxCell>
        <mxCell id="ONzNmWFKcciWtL8QYSna-30" value="notificou &lt;br&gt;o gerente falta de item no estoque" style="rounded=0;whiteSpace=wrap;html=1;fontSize=25;strokeWidth=3;fillColor=#f2a413;fontStyle=0;dashed=1;" vertex="1" parent="1">
          <mxGeometry x="4992" y="1378" width="200" height="200" as="geometry" />
        </mxCell>
        <mxCell id="ONzNmWFKcciWtL8QYSna-31" style="edgeStyle=orthogonalEdgeStyle;rounded=0;orthogonalLoop=1;jettySize=auto;html=1;entryX=0;entryY=0.5;entryDx=0;entryDy=0;strokeColor=#FF0000;dashed=1;" edge="1" parent="1" source="ONzNmWFKcciWtL8QYSna-32" target="ONzNmWFKcciWtL8QYSna-97">
          <mxGeometry relative="1" as="geometry" />
        </mxCell>
        <mxCell id="ONzNmWFKcciWtL8QYSna-32" value="enfrentou falha ao executar comando" style="rounded=0;whiteSpace=wrap;html=1;fontSize=21;strokeWidth=3;fillColor=#f2a413;fontStyle=0;strokeColor=#000000;dashed=1;" vertex="1" parent="1">
          <mxGeometry x="1665" y="1364" width="200" height="200" as="geometry" />
        </mxCell>
        <mxCell id="ONzNmWFKcciWtL8QYSna-33" value="&lt;div style=&quot;font-size: 25px;&quot;&gt;editou carrinho do pedido&lt;/div&gt;" style="rounded=0;whiteSpace=wrap;html=1;fontSize=25;strokeWidth=3;fillColor=#f2a413;fontStyle=0;strokeColor=#000000;dashed=1;" vertex="1" parent="1">
          <mxGeometry x="1273" y="1243" width="200" height="200" as="geometry" />
        </mxCell>
        <mxCell id="ONzNmWFKcciWtL8QYSna-34" value="totem iniciado" style="rounded=0;whiteSpace=wrap;html=1;fontSize=25;strokeWidth=3;fillColor=#f2a413;fontStyle=0;strokeColor=default;" vertex="1" parent="1">
          <mxGeometry x="-4423" y="666.25" width="200" height="200" as="geometry" />
        </mxCell>
        <mxCell id="ONzNmWFKcciWtL8QYSna-35" value="atualizou&amp;nbsp;status do pedido no sistema&lt;br&gt;&quot;RECEBIDO&quot;" style="rounded=0;whiteSpace=wrap;html=1;fontSize=25;strokeWidth=3;fillColor=#f2a413;strokeColor=#FF0000;fontStyle=0" vertex="1" parent="1">
          <mxGeometry x="4336" y="694.5" width="216.5" height="203" as="geometry" />
        </mxCell>
        <mxCell id="ONzNmWFKcciWtL8QYSna-36" value="atualizou&amp;nbsp;status do pedido no sistema&lt;br&gt;&quot;EM PREPARO&quot;" style="rounded=0;whiteSpace=wrap;html=1;fontSize=25;strokeWidth=3;fillColor=#f2a413;strokeColor=#FF0000;fontStyle=0" vertex="1" parent="1">
          <mxGeometry x="5398" y="697.5" width="216.5" height="203" as="geometry" />
        </mxCell>
        <mxCell id="ONzNmWFKcciWtL8QYSna-37" value="atualizou status do pedido no sistema&lt;br&gt;&quot;PRONTO&quot;" style="rounded=0;whiteSpace=wrap;html=1;fontSize=25;strokeWidth=3;fillColor=#f2a413;strokeColor=#FF0000;fontStyle=0" vertex="1" parent="1">
          <mxGeometry x="7055" y="702.25" width="216.5" height="203" as="geometry" />
        </mxCell>
        <mxCell id="ONzNmWFKcciWtL8QYSna-38" style="edgeStyle=orthogonalEdgeStyle;rounded=0;orthogonalLoop=1;jettySize=auto;html=1;entryX=0;entryY=0.5;entryDx=0;entryDy=0;" edge="1" parent="1" source="ONzNmWFKcciWtL8QYSna-39" target="ONzNmWFKcciWtL8QYSna-133">
          <mxGeometry relative="1" as="geometry" />
        </mxCell>
        <mxCell id="ONzNmWFKcciWtL8QYSna-39" value="exibiu likert" style="rounded=0;whiteSpace=wrap;html=1;fontSize=25;strokeWidth=3;fillColor=#f2a413;fontStyle=0;strokeColor=#000000;" vertex="1" parent="1">
          <mxGeometry x="2421" y="693" width="200" height="200" as="geometry" />
        </mxCell>
        <mxCell id="ONzNmWFKcciWtL8QYSna-40" value="Gerenciou&lt;br&gt;clientes" style="rounded=0;whiteSpace=wrap;html=1;fontSize=25;strokeWidth=3;fillColor=#f2a413;fontStyle=0;strokeColor=#FF8000;" vertex="1" parent="1">
          <mxGeometry x="768" y="1589" width="200" height="200" as="geometry" />
        </mxCell>
        <mxCell id="ONzNmWFKcciWtL8QYSna-41" value="não&lt;br&gt;&amp;nbsp;se identificou" style="rounded=0;whiteSpace=wrap;html=1;fontSize=25;strokeWidth=3;fillColor=#f2a413;strokeColor=#000000;dashed=1;" vertex="1" parent="1">
          <mxGeometry x="-907" y="1235" width="200" height="200" as="geometry" />
        </mxCell>
        <mxCell id="ONzNmWFKcciWtL8QYSna-42" value="realizou pagamento" style="rounded=0;whiteSpace=wrap;html=1;fontSize=25;strokeWidth=3;fillColor=#f2a413;strokeColor=#000000;" vertex="1" parent="1">
          <mxGeometry x="1370" y="686" width="200" height="200" as="geometry" />
        </mxCell>
        <mxCell id="ONzNmWFKcciWtL8QYSna-43" style="edgeStyle=orthogonalEdgeStyle;rounded=0;orthogonalLoop=1;jettySize=auto;html=1;entryX=0;entryY=0.5;entryDx=0;entryDy=0;" edge="1" parent="1" source="ONzNmWFKcciWtL8QYSna-44" target="ONzNmWFKcciWtL8QYSna-123">
          <mxGeometry relative="1" as="geometry" />
        </mxCell>
        <mxCell id="ONzNmWFKcciWtL8QYSna-44" value="exibiu tela&lt;br&gt;&amp;nbsp;de revisão do pedido" style="rounded=0;whiteSpace=wrap;html=1;fontSize=25;strokeWidth=3;fillColor=#f2a413;strokeColor=default;" vertex="1" parent="1">
          <mxGeometry x="-249" y="686" width="200" height="200" as="geometry" />
        </mxCell>
        <mxCell id="ONzNmWFKcciWtL8QYSna-45" style="edgeStyle=orthogonalEdgeStyle;rounded=0;orthogonalLoop=1;jettySize=auto;html=1;entryX=0;entryY=0.5;entryDx=0;entryDy=0;" edge="1" parent="1" source="ONzNmWFKcciWtL8QYSna-46" target="ONzNmWFKcciWtL8QYSna-127">
          <mxGeometry relative="1" as="geometry" />
        </mxCell>
        <mxCell id="ONzNmWFKcciWtL8QYSna-46" value="exibiu tela com opções de pagamento" style="rounded=0;whiteSpace=wrap;html=1;fontSize=25;strokeWidth=3;fillColor=#f2a413;strokeColor=#000000;" vertex="1" parent="1">
          <mxGeometry x="813" y="686" width="200" height="200" as="geometry" />
        </mxCell>
        <mxCell id="ONzNmWFKcciWtL8QYSna-47" style="edgeStyle=orthogonalEdgeStyle;rounded=0;orthogonalLoop=1;jettySize=auto;html=1;strokeColor=#FF0000;dashed=1;" edge="1" parent="1" source="ONzNmWFKcciWtL8QYSna-48" target="ONzNmWFKcciWtL8QYSna-26">
          <mxGeometry relative="1" as="geometry" />
        </mxCell>
        <mxCell id="ONzNmWFKcciWtL8QYSna-48" value="errou o pedido" style="rounded=0;whiteSpace=wrap;html=1;fontSize=25;strokeWidth=3;fillColor=#f2a413;dashed=1;" vertex="1" parent="1">
          <mxGeometry x="2832" y="1727" width="200" height="200" as="geometry" />
        </mxCell>
        <mxCell id="ONzNmWFKcciWtL8QYSna-49" style="edgeStyle=orthogonalEdgeStyle;rounded=0;orthogonalLoop=1;jettySize=auto;html=1;entryX=0.5;entryY=0;entryDx=0;entryDy=0;" edge="1" parent="1" source="ONzNmWFKcciWtL8QYSna-50" target="ONzNmWFKcciWtL8QYSna-14">
          <mxGeometry relative="1" as="geometry">
            <Array as="points">
              <mxPoint x="-4825" y="419" />
              <mxPoint x="-2217" y="419" />
            </Array>
          </mxGeometry>
        </mxCell>
        <mxCell id="ONzNmWFKcciWtL8QYSna-50" value="cadastrou cupom promocional" style="rounded=0;whiteSpace=wrap;html=1;fontSize=25;strokeWidth=3;fillColor=#f2a413;strokeColor=#FF8000;" vertex="1" parent="1">
          <mxGeometry x="-5304" y="670" width="200" height="200" as="geometry" />
        </mxCell>
        <mxCell id="ONzNmWFKcciWtL8QYSna-51" value="gerenciou funcionários" style="rounded=0;whiteSpace=wrap;html=1;fontSize=25;strokeWidth=3;fillColor=#f2a413;strokeColor=#FF8000;" vertex="1" parent="1">
          <mxGeometry x="-6156" y="686" width="200" height="200" as="geometry" />
        </mxCell>
        <mxCell id="ONzNmWFKcciWtL8QYSna-52" value="atuou em pedidos executados" style="rounded=0;whiteSpace=wrap;html=1;fontSize=25;strokeWidth=3;fillColor=#f2a413;dashed=1;" vertex="1" parent="1">
          <mxGeometry x="3602" y="1727" width="200" height="200" as="geometry" />
        </mxCell>
        <mxCell id="ONzNmWFKcciWtL8QYSna-53" style="edgeStyle=orthogonalEdgeStyle;rounded=0;orthogonalLoop=1;jettySize=auto;html=1;" edge="1" parent="1" source="ONzNmWFKcciWtL8QYSna-54" target="ONzNmWFKcciWtL8QYSna-58">
          <mxGeometry relative="1" as="geometry">
            <Array as="points">
              <mxPoint x="-5698" y="1590" />
              <mxPoint x="-5698" y="1770" />
            </Array>
          </mxGeometry>
        </mxCell>
        <mxCell id="ONzNmWFKcciWtL8QYSna-54" value="gerenciou estoque" style="rounded=0;whiteSpace=wrap;html=1;fontSize=25;strokeWidth=3;fillColor=#f2a413;strokeColor=#FF8000;" vertex="1" parent="1">
          <mxGeometry x="-6193" y="1498" width="200" height="200" as="geometry" />
        </mxCell>
        <mxCell id="ONzNmWFKcciWtL8QYSna-55" value="executou pedido, finalizou e entregou pedido para o atendente" style="rounded=0;whiteSpace=wrap;html=1;fontSize=25;strokeWidth=3;fillColor=#f2a413;strokeColor=#000000;" vertex="1" parent="1">
          <mxGeometry x="6490" y="700.75" width="200" height="200" as="geometry" />
        </mxCell>
        <mxCell id="ONzNmWFKcciWtL8QYSna-56" value="visualizou pedido" style="rounded=0;whiteSpace=wrap;html=1;fontSize=25;strokeWidth=3;fillColor=#f2a413;strokeColor=#000000;" vertex="1" parent="1">
          <mxGeometry x="4869" y="694.5" width="200" height="200" as="geometry" />
        </mxCell>
        <mxCell id="ONzNmWFKcciWtL8QYSna-57" value="criou carrinho do pedido" style="rounded=0;whiteSpace=wrap;html=1;fontSize=25;strokeWidth=3;fillColor=#f2a413;strokeColor=#000000;" vertex="1" parent="1">
          <mxGeometry x="-742" y="683.25" width="200" height="200" as="geometry" />
        </mxCell>
        <mxCell id="ONzNmWFKcciWtL8QYSna-58" value="gerenciou cardápio" style="rounded=0;whiteSpace=wrap;html=1;fontSize=25;strokeWidth=3;fillColor=#f2a413;strokeColor=#FF8000;" vertex="1" parent="1">
          <mxGeometry x="-5592" y="1763" width="200" height="200" as="geometry" />
        </mxCell>
        <mxCell id="ONzNmWFKcciWtL8QYSna-59" style="edgeStyle=orthogonalEdgeStyle;rounded=0;orthogonalLoop=1;jettySize=auto;html=1;entryX=0.5;entryY=0;entryDx=0;entryDy=0;" edge="1" parent="1" source="ONzNmWFKcciWtL8QYSna-60" target="ONzNmWFKcciWtL8QYSna-58">
          <mxGeometry relative="1" as="geometry" />
        </mxCell>
        <mxCell id="ONzNmWFKcciWtL8QYSna-60" value="cadastrou produtos no sistema" style="rounded=0;whiteSpace=wrap;html=1;fontSize=25;strokeWidth=3;fillColor=#f2a413;strokeColor=#FF8000;" vertex="1" parent="1">
          <mxGeometry x="-5682" y="1011" width="200" height="200" as="geometry" />
        </mxCell>
        <mxCell id="ONzNmWFKcciWtL8QYSna-61" value="gerente" style="rounded=0;whiteSpace=wrap;html=1;fontSize=25;strokeWidth=3;fillColor=#f2e7ac;" vertex="1" parent="1">
          <mxGeometry x="-6247" y="1645" width="110" height="200" as="geometry" />
        </mxCell>
        <mxCell id="ONzNmWFKcciWtL8QYSna-62" value="gerente" style="rounded=0;whiteSpace=wrap;html=1;fontSize=25;strokeWidth=3;fillColor=#f2e7ac;" vertex="1" parent="1">
          <mxGeometry x="-5651" y="1924" width="110" height="200" as="geometry" />
        </mxCell>
        <mxCell id="ONzNmWFKcciWtL8QYSna-63" value="gerente" style="rounded=0;whiteSpace=wrap;html=1;fontSize=25;strokeWidth=3;fillColor=#f2e7ac;" vertex="1" parent="1">
          <mxGeometry x="-5732" y="1166" width="110" height="200" as="geometry" />
        </mxCell>
        <mxCell id="ONzNmWFKcciWtL8QYSna-64" value="gerente" style="rounded=0;whiteSpace=wrap;html=1;fontSize=25;strokeWidth=3;fillColor=#f2e7ac;" vertex="1" parent="1">
          <mxGeometry x="-6226" y="2074" width="110" height="200" as="geometry" />
        </mxCell>
        <mxCell id="ONzNmWFKcciWtL8QYSna-65" value="Gerente" style="rounded=0;whiteSpace=wrap;html=1;fontSize=25;strokeWidth=3;fillColor=#f2e7ac;" vertex="1" parent="1">
          <mxGeometry x="-5375" y="833" width="114" height="200" as="geometry" />
        </mxCell>
        <mxCell id="ONzNmWFKcciWtL8QYSna-66" value="gerente" style="rounded=0;whiteSpace=wrap;html=1;fontSize=25;strokeWidth=3;fillColor=#f2e7ac;" vertex="1" parent="1">
          <mxGeometry x="692" y="1718" width="110" height="200" as="geometry" />
        </mxCell>
        <mxCell id="ONzNmWFKcciWtL8QYSna-67" value="gerente" style="rounded=0;whiteSpace=wrap;html=1;fontSize=25;strokeWidth=3;fillColor=#f2e7ac;" vertex="1" parent="1">
          <mxGeometry x="-6223" y="845" width="110" height="200" as="geometry" />
        </mxCell>
        <mxCell id="ONzNmWFKcciWtL8QYSna-68" value="Cliente" style="rounded=0;whiteSpace=wrap;html=1;fontSize=25;strokeWidth=3;fillColor=#f2e7ac;" vertex="1" parent="1">
          <mxGeometry x="-973" y="1381" width="110" height="200" as="geometry" />
        </mxCell>
        <mxCell id="ONzNmWFKcciWtL8QYSna-69" style="edgeStyle=orthogonalEdgeStyle;rounded=0;orthogonalLoop=1;jettySize=auto;html=1;" edge="1" parent="1" source="ONzNmWFKcciWtL8QYSna-70" target="ONzNmWFKcciWtL8QYSna-18">
          <mxGeometry relative="1" as="geometry" />
        </mxCell>
        <mxCell id="ONzNmWFKcciWtL8QYSna-70" value="ofertas&lt;br&gt;&amp;nbsp;promocionais somente &lt;br style=&quot;font-size: 16px;&quot;&gt;para clientes &lt;br style=&quot;font-size: 16px;&quot;&gt;cadastrados" style="rhombus;whiteSpace=wrap;html=1;fontSize=16;strokeWidth=3;fillColor=#fb7b80;" vertex="1" parent="1">
          <mxGeometry x="-2148" y="1018" width="200" height="206" as="geometry" />
        </mxCell>
        <mxCell id="ONzNmWFKcciWtL8QYSna-71" style="edgeStyle=orthogonalEdgeStyle;rounded=0;orthogonalLoop=1;jettySize=auto;html=1;" edge="1" parent="1" source="ONzNmWFKcciWtL8QYSna-72" target="ONzNmWFKcciWtL8QYSna-50">
          <mxGeometry relative="1" as="geometry" />
        </mxCell>
        <mxCell id="ONzNmWFKcciWtL8QYSna-72" value="Somente &lt;br&gt;para clientes &lt;br&gt;cadastrados" style="rhombus;whiteSpace=wrap;html=1;fontSize=21;strokeWidth=3;fillColor=#fb7b80;" vertex="1" parent="1">
          <mxGeometry x="-5304" y="1037" width="200" height="206" as="geometry" />
        </mxCell>
        <mxCell id="ONzNmWFKcciWtL8QYSna-73" style="edgeStyle=orthogonalEdgeStyle;rounded=0;orthogonalLoop=1;jettySize=auto;html=1;" edge="1" parent="1" source="ONzNmWFKcciWtL8QYSna-74" target="ONzNmWFKcciWtL8QYSna-51">
          <mxGeometry relative="1" as="geometry" />
        </mxCell>
        <mxCell id="ONzNmWFKcciWtL8QYSna-74" value="escala de funcionários" style="rhombus;whiteSpace=wrap;html=1;fontSize=21;strokeWidth=3;fillColor=#fb7b80;" vertex="1" parent="1">
          <mxGeometry x="-6156" y="416" width="200" height="206" as="geometry" />
        </mxCell>
        <mxCell id="ONzNmWFKcciWtL8QYSna-75" style="edgeStyle=orthogonalEdgeStyle;rounded=0;orthogonalLoop=1;jettySize=auto;html=1;" edge="1" parent="1" source="ONzNmWFKcciWtL8QYSna-76" target="ONzNmWFKcciWtL8QYSna-32">
          <mxGeometry relative="1" as="geometry" />
        </mxCell>
        <mxCell id="ONzNmWFKcciWtL8QYSna-76" value="&lt;font style=&quot;font-size: 15px;&quot;&gt;tipos &lt;br&gt;de falha: &lt;br style=&quot;&quot;&gt;sistema de QR code, &lt;br&gt;notificar o pedido, erro para atualizar as &lt;br&gt;informações dos &lt;br&gt;pedidos&lt;/font&gt;" style="rhombus;whiteSpace=wrap;html=1;fontSize=13;strokeWidth=3;fillColor=#fb7b80;" vertex="1" parent="1">
          <mxGeometry x="1665" y="1672" width="200" height="206" as="geometry" />
        </mxCell>
        <mxCell id="ONzNmWFKcciWtL8QYSna-77" value="Totem" style="rounded=0;whiteSpace=wrap;html=1;fontSize=25;strokeWidth=3;fillColor=#cf89d9;" vertex="1" parent="1">
          <mxGeometry x="1604" y="1512" width="110" height="200" as="geometry" />
        </mxCell>
        <mxCell id="ONzNmWFKcciWtL8QYSna-78" value="Cliente" style="rounded=0;whiteSpace=wrap;html=1;fontSize=25;strokeWidth=3;fillColor=#f2e7ac;" vertex="1" parent="1">
          <mxGeometry x="1209" y="1385" width="110" height="200" as="geometry" />
        </mxCell>
        <mxCell id="ONzNmWFKcciWtL8QYSna-79" value="Atendente" style="rounded=0;whiteSpace=wrap;html=1;fontSize=21;strokeWidth=3;fillColor=#f2e7ac;" vertex="1" parent="1">
          <mxGeometry x="2794" y="1858" width="110" height="200" as="geometry" />
        </mxCell>
        <mxCell id="ONzNmWFKcciWtL8QYSna-80" value="Atendente" style="rounded=0;whiteSpace=wrap;html=1;fontSize=21;strokeWidth=3;fillColor=#f2e7ac;" vertex="1" parent="1">
          <mxGeometry x="2268" y="1484" width="110" height="200" as="geometry" />
        </mxCell>
        <mxCell id="ONzNmWFKcciWtL8QYSna-81" value="Cliente" style="rounded=0;whiteSpace=wrap;html=1;fontSize=21;strokeWidth=3;fillColor=#f2e7ac;" vertex="1" parent="1">
          <mxGeometry x="3169" y="1853" width="110" height="200" as="geometry" />
        </mxCell>
        <mxCell id="ONzNmWFKcciWtL8QYSna-82" value="Atendente" style="rounded=0;whiteSpace=wrap;html=1;fontSize=21;strokeWidth=3;fillColor=#f2e7ac;" vertex="1" parent="1">
          <mxGeometry x="2595" y="1507" width="110" height="200" as="geometry" />
        </mxCell>
        <mxCell id="ONzNmWFKcciWtL8QYSna-83" style="edgeStyle=orthogonalEdgeStyle;rounded=0;orthogonalLoop=1;jettySize=auto;html=1;" edge="1" parent="1" source="ONzNmWFKcciWtL8QYSna-84" target="ONzNmWFKcciWtL8QYSna-46">
          <mxGeometry relative="1" as="geometry" />
        </mxCell>
        <mxCell id="ONzNmWFKcciWtL8QYSna-84" value="Pagamento&lt;br&gt;&amp;nbsp;em dinheiro somente com o &lt;br&gt;atendente" style="rhombus;whiteSpace=wrap;html=1;fontSize=21;strokeWidth=3;fillColor=#fb7b80;" vertex="1" parent="1">
          <mxGeometry x="813" y="952" width="200" height="206" as="geometry" />
        </mxCell>
        <mxCell id="ONzNmWFKcciWtL8QYSna-85" value="Avaliou a satisfação dos&lt;br&gt;clientes" style="rounded=0;whiteSpace=wrap;html=1;fontSize=25;strokeWidth=3;fillColor=#f2a413;fontStyle=0;strokeColor=#000000;" vertex="1" parent="1">
          <mxGeometry x="-6561" y="1276" width="200" height="200" as="geometry" />
        </mxCell>
        <mxCell id="ONzNmWFKcciWtL8QYSna-86" value="gerente" style="rounded=0;whiteSpace=wrap;html=1;fontSize=25;strokeWidth=3;fillColor=#f2e7ac;" vertex="1" parent="1">
          <mxGeometry x="-6637" y="1405" width="110" height="200" as="geometry" />
        </mxCell>
        <mxCell id="ONzNmWFKcciWtL8QYSna-87" style="edgeStyle=orthogonalEdgeStyle;rounded=0;orthogonalLoop=1;jettySize=auto;html=1;" edge="1" parent="1" source="ONzNmWFKcciWtL8QYSna-88">
          <mxGeometry relative="1" as="geometry">
            <mxPoint x="3913.999999999998" y="899" as="targetPoint" />
          </mxGeometry>
        </mxCell>
        <mxCell id="ONzNmWFKcciWtL8QYSna-88" value="&lt;span style=&quot;font-size: 15px;&quot;&gt;Impressão, ou &lt;br&gt;via tablet&lt;/span&gt;" style="rhombus;whiteSpace=wrap;html=1;fontSize=13;strokeWidth=3;fillColor=#fb7b80;" vertex="1" parent="1">
          <mxGeometry x="3814" y="1024" width="200" height="206" as="geometry" />
        </mxCell>
        <mxCell id="ONzNmWFKcciWtL8QYSna-89" value="Cozinheiro" style="rounded=0;whiteSpace=wrap;html=1;fontSize=21;strokeWidth=3;fillColor=#f2e7ac;" vertex="1" parent="1">
          <mxGeometry x="6224" y="859" width="110" height="200" as="geometry" />
        </mxCell>
        <mxCell id="ONzNmWFKcciWtL8QYSna-90" value="Cliente" style="rounded=0;whiteSpace=wrap;html=1;fontSize=21;strokeWidth=3;fillColor=#f2e7ac;" vertex="1" parent="1">
          <mxGeometry x="7818" y="869.75" width="110" height="200" as="geometry" />
        </mxCell>
        <mxCell id="ONzNmWFKcciWtL8QYSna-91" value="Gerente" style="rounded=0;whiteSpace=wrap;html=1;fontSize=21;strokeWidth=3;fillColor=#f2e7ac;" vertex="1" parent="1">
          <mxGeometry x="3529" y="1874" width="110" height="200" as="geometry" />
        </mxCell>
        <mxCell id="ONzNmWFKcciWtL8QYSna-92" value="tocar em totem" style="rounded=0;whiteSpace=wrap;html=1;fontSize=25;strokeWidth=3;fillColor=#01bcd2;strokeColor=default;" vertex="1" parent="1">
          <mxGeometry x="-4633" y="666.25" width="200" height="200" as="geometry" />
        </mxCell>
        <mxCell id="ONzNmWFKcciWtL8QYSna-93" value="escolheu pedido" style="rounded=0;whiteSpace=wrap;html=1;fontSize=25;strokeWidth=3;fillColor=#f2a413;strokeColor=#000000;" vertex="1" parent="1">
          <mxGeometry x="-1271" y="683.25" width="200" height="200" as="geometry" />
        </mxCell>
        <mxCell id="ONzNmWFKcciWtL8QYSna-94" value="cliente" style="rounded=0;whiteSpace=wrap;html=1;fontSize=25;strokeWidth=3;fillColor=#f2e7ac;" vertex="1" parent="1">
          <mxGeometry x="-1535" y="818" width="110" height="200" as="geometry" />
        </mxCell>
        <mxCell id="ONzNmWFKcciWtL8QYSna-95" value="Cozinheiro" style="rounded=0;whiteSpace=wrap;html=1;fontSize=21;strokeWidth=3;fillColor=#f2e7ac;" vertex="1" parent="1">
          <mxGeometry x="4918" y="1531" width="110" height="200" as="geometry" />
        </mxCell>
        <mxCell id="ONzNmWFKcciWtL8QYSna-96" style="edgeStyle=orthogonalEdgeStyle;rounded=0;orthogonalLoop=1;jettySize=auto;html=1;entryX=0;entryY=0.5;entryDx=0;entryDy=0;strokeColor=#FF0000;dashed=1;" edge="1" parent="1" source="ONzNmWFKcciWtL8QYSna-97" target="ONzNmWFKcciWtL8QYSna-22">
          <mxGeometry relative="1" as="geometry" />
        </mxCell>
        <mxCell id="ONzNmWFKcciWtL8QYSna-97" value="fez pedido no caixa" style="rounded=0;whiteSpace=wrap;html=1;fontSize=21;strokeWidth=3;fillColor=#f2a413;fontStyle=0;strokeColor=#000000;dashed=1;" vertex="1" parent="1">
          <mxGeometry x="2019" y="1364" width="200" height="200" as="geometry" />
        </mxCell>
        <mxCell id="ONzNmWFKcciWtL8QYSna-98" value="Cliente" style="rounded=0;whiteSpace=wrap;html=1;fontSize=25;strokeWidth=3;fillColor=#f2e7ac;" vertex="1" parent="1">
          <mxGeometry x="1964" y="1531" width="110" height="200" as="geometry" />
        </mxCell>
        <mxCell id="ONzNmWFKcciWtL8QYSna-99" value="" style="endArrow=none;html=1;rounded=0;strokeWidth=12;" edge="1" parent="1" source="ONzNmWFKcciWtL8QYSna-101">
          <mxGeometry width="50" height="50" relative="1" as="geometry">
            <mxPoint x="3140" y="1650.5" as="sourcePoint" />
            <mxPoint x="3996" y="1660" as="targetPoint" />
          </mxGeometry>
        </mxCell>
        <mxCell id="ONzNmWFKcciWtL8QYSna-100" value="" style="endArrow=none;html=1;rounded=0;strokeWidth=12;" edge="1" parent="1" target="ONzNmWFKcciWtL8QYSna-101">
          <mxGeometry width="50" height="50" relative="1" as="geometry">
            <mxPoint x="2799" y="1651" as="sourcePoint" />
            <mxPoint x="4085" y="1654.5" as="targetPoint" />
          </mxGeometry>
        </mxCell>
        <mxCell id="ONzNmWFKcciWtL8QYSna-101" value="" style="ellipse;whiteSpace=wrap;html=1;aspect=fixed;fillColor=#000000;" vertex="1" parent="1">
          <mxGeometry x="3308" y="1636" width="36" height="36" as="geometry" />
        </mxCell>
        <mxCell id="ONzNmWFKcciWtL8QYSna-102" value="Resolução de conflitos" style="text;html=1;strokeColor=none;fillColor=none;align=center;verticalAlign=middle;whiteSpace=wrap;rounded=0;fontStyle=1;fontSize=25;" vertex="1" parent="1">
          <mxGeometry x="3225" y="1578" width="307" height="38" as="geometry" />
        </mxCell>
        <mxCell id="ONzNmWFKcciWtL8QYSna-103" value="" style="endArrow=none;html=1;rounded=0;strokeWidth=12;" edge="1" parent="1" source="ONzNmWFKcciWtL8QYSna-105">
          <mxGeometry width="50" height="50" relative="1" as="geometry">
            <mxPoint x="2010" y="1310.5" as="sourcePoint" />
            <mxPoint x="2866" y="1320" as="targetPoint" />
          </mxGeometry>
        </mxCell>
        <mxCell id="ONzNmWFKcciWtL8QYSna-104" value="" style="endArrow=none;html=1;rounded=0;strokeWidth=12;" edge="1" parent="1" target="ONzNmWFKcciWtL8QYSna-105">
          <mxGeometry width="50" height="50" relative="1" as="geometry">
            <mxPoint x="1669" y="1311" as="sourcePoint" />
            <mxPoint x="2955" y="1314.5" as="targetPoint" />
          </mxGeometry>
        </mxCell>
        <mxCell id="ONzNmWFKcciWtL8QYSna-105" value="" style="ellipse;whiteSpace=wrap;html=1;aspect=fixed;fillColor=#000000;" vertex="1" parent="1">
          <mxGeometry x="2178" y="1296" width="36" height="36" as="geometry" />
        </mxCell>
        <mxCell id="ONzNmWFKcciWtL8QYSna-106" value="Resolução de conflitos" style="text;html=1;strokeColor=none;fillColor=none;align=center;verticalAlign=middle;whiteSpace=wrap;rounded=0;fontStyle=1;fontSize=25;" vertex="1" parent="1">
          <mxGeometry x="2095" y="1238" width="307" height="38" as="geometry" />
        </mxCell>
        <mxCell id="ONzNmWFKcciWtL8QYSna-107" style="edgeStyle=orthogonalEdgeStyle;rounded=0;orthogonalLoop=1;jettySize=auto;html=1;" edge="1" parent="1" source="ONzNmWFKcciWtL8QYSna-108" target="ONzNmWFKcciWtL8QYSna-92">
          <mxGeometry relative="1" as="geometry">
            <Array as="points">
              <mxPoint x="-4798" y="766.5" />
            </Array>
          </mxGeometry>
        </mxCell>
        <mxCell id="ONzNmWFKcciWtL8QYSna-108" value="Totem eletrônico" style="rounded=0;whiteSpace=wrap;html=1;fontSize=25;strokeWidth=3;fillColor=#8dc774;" vertex="1" parent="1">
          <mxGeometry x="-4892" y="463.5" width="200" height="200" as="geometry" />
        </mxCell>
        <mxCell id="ONzNmWFKcciWtL8QYSna-109" value="Cliente" style="rounded=0;whiteSpace=wrap;html=1;fontSize=25;strokeWidth=3;fillColor=#f2e7ac;" vertex="1" parent="1">
          <mxGeometry x="-4697" y="837" width="110" height="200" as="geometry" />
        </mxCell>
        <mxCell id="ONzNmWFKcciWtL8QYSna-110" value="Cliente" style="rounded=0;whiteSpace=wrap;html=1;fontSize=25;strokeWidth=3;fillColor=#f2e7ac;" vertex="1" parent="1">
          <mxGeometry x="-2583" y="826.5" width="110" height="200" as="geometry" />
        </mxCell>
        <mxCell id="ONzNmWFKcciWtL8QYSna-111" style="edgeStyle=orthogonalEdgeStyle;rounded=0;orthogonalLoop=1;jettySize=auto;html=1;" edge="1" parent="1" source="ONzNmWFKcciWtL8QYSna-112" target="ONzNmWFKcciWtL8QYSna-19">
          <mxGeometry relative="1" as="geometry" />
        </mxCell>
        <mxCell id="ONzNmWFKcciWtL8QYSna-112" value="validou campos&lt;br&gt;obrigátorios" style="rounded=0;whiteSpace=wrap;html=1;fontSize=25;strokeWidth=3;fillColor=#f2a413;gradientColor=none;strokeColor=default;" vertex="1" parent="1">
          <mxGeometry x="-2854" y="679" width="200" height="200" as="geometry" />
        </mxCell>
        <mxCell id="ONzNmWFKcciWtL8QYSna-113" value="cria o carrinho para que o cliente possa adicionar ou remover produtos" style="rounded=0;whiteSpace=wrap;html=1;fontSize=25;strokeWidth=3;fillColor=#cf89d9;" vertex="1" parent="1">
          <mxGeometry x="-1124" y="555" width="200" height="200" as="geometry" />
        </mxCell>
        <mxCell id="ONzNmWFKcciWtL8QYSna-114" value="Solicita identificação" style="rounded=0;whiteSpace=wrap;html=1;fontSize=25;strokeWidth=3;fillColor=#01bcd2;strokeColor=default;" vertex="1" parent="1">
          <mxGeometry x="-4100" y="677" width="200" height="200" as="geometry" />
        </mxCell>
        <mxCell id="ONzNmWFKcciWtL8QYSna-115" value="tela exibida com informações dos produtos e campo de identificação" style="rounded=0;whiteSpace=wrap;html=1;fontSize=25;strokeWidth=3;fillColor=#cf89d9;" vertex="1" parent="1">
          <mxGeometry x="-4255" y="565" width="200" height="200" as="geometry" />
        </mxCell>
        <mxCell id="ONzNmWFKcciWtL8QYSna-116" value="fez cadastro" style="rounded=0;whiteSpace=wrap;html=1;fontSize=25;strokeWidth=3;fillColor=#f2a413;strokeColor=#000000;" vertex="1" parent="1">
          <mxGeometry x="-3394" y="679" width="200" height="200" as="geometry" />
        </mxCell>
        <mxCell id="ONzNmWFKcciWtL8QYSna-117" style="edgeStyle=orthogonalEdgeStyle;rounded=0;orthogonalLoop=1;jettySize=auto;html=1;" edge="1" parent="1" source="ONzNmWFKcciWtL8QYSna-118" target="ONzNmWFKcciWtL8QYSna-119">
          <mxGeometry relative="1" as="geometry" />
        </mxCell>
        <mxCell id="ONzNmWFKcciWtL8QYSna-118" value="Solicitou cadastro" style="rounded=0;whiteSpace=wrap;html=1;fontSize=25;strokeWidth=3;fillColor=#f2a413;strokeColor=#000000;" vertex="1" parent="1">
          <mxGeometry x="-3889" y="677" width="200" height="200" as="geometry" />
        </mxCell>
        <mxCell id="ONzNmWFKcciWtL8QYSna-119" value="cadatrar dados" style="rounded=0;whiteSpace=wrap;html=1;fontSize=25;strokeWidth=3;fillColor=#01bcd2;strokeColor=default;" vertex="1" parent="1">
          <mxGeometry x="-3608" y="677" width="200" height="200" as="geometry" />
        </mxCell>
        <mxCell id="ONzNmWFKcciWtL8QYSna-120" value="Cliente" style="rounded=0;whiteSpace=wrap;html=1;fontSize=25;strokeWidth=3;fillColor=#f2e7ac;" vertex="1" parent="1">
          <mxGeometry x="-3664" y="834.82" width="108" height="196.36" as="geometry" />
        </mxCell>
        <mxCell id="ONzNmWFKcciWtL8QYSna-121" value="política de validação dos campos" style="rounded=0;whiteSpace=wrap;html=1;fontSize=25;strokeWidth=3;fillColor=#cf89d9;" vertex="1" parent="1">
          <mxGeometry x="-3232" y="548" width="200" height="200" as="geometry" />
        </mxCell>
        <mxCell id="ONzNmWFKcciWtL8QYSna-122" value="redireciona para&amp;nbsp;&lt;br style=&quot;border-color: var(--border-color);&quot;&gt;tela de revisão" style="rounded=0;whiteSpace=wrap;html=1;fontSize=25;strokeWidth=3;fillColor=#cf89d9;" vertex="1" parent="1">
          <mxGeometry x="-617" y="541" width="200" height="200" as="geometry" />
        </mxCell>
        <mxCell id="ONzNmWFKcciWtL8QYSna-123" value="adiciona, &lt;br&gt;remove, dupla itens ou volta para a tela anterior" style="rounded=0;whiteSpace=wrap;html=1;fontSize=25;strokeWidth=3;fillColor=#01bcd2;strokeColor=default;" vertex="1" parent="1">
          <mxGeometry x="69" y="686" width="200" height="200" as="geometry" />
        </mxCell>
        <mxCell id="ONzNmWFKcciWtL8QYSna-124" value="Cliente" style="rounded=0;whiteSpace=wrap;html=1;fontSize=25;strokeWidth=3;fillColor=#f2e7ac;" vertex="1" parent="1">
          <mxGeometry x="7" y="843.0000000000001" width="110" height="200" as="geometry" />
        </mxCell>
        <mxCell id="ONzNmWFKcciWtL8QYSna-125" value="revisou carrinho" style="rounded=0;whiteSpace=wrap;html=1;fontSize=25;strokeWidth=3;fillColor=#f2a413;strokeColor=default;" vertex="1" parent="1">
          <mxGeometry x="279" y="686" width="200" height="200" as="geometry" />
        </mxCell>
        <mxCell id="ONzNmWFKcciWtL8QYSna-126" value="redireciona para&amp;nbsp;&lt;br style=&quot;border-color: var(--border-color);&quot;&gt;tela de pagamento" style="rounded=0;whiteSpace=wrap;html=1;fontSize=25;strokeWidth=3;fillColor=#cf89d9;" vertex="1" parent="1">
          <mxGeometry x="445" y="561" width="200" height="200" as="geometry" />
        </mxCell>
        <mxCell id="ONzNmWFKcciWtL8QYSna-127" value="escolhe opções de pagamento" style="rounded=0;whiteSpace=wrap;html=1;fontSize=25;strokeWidth=3;fillColor=#01bcd2;strokeColor=default;" vertex="1" parent="1">
          <mxGeometry x="1158" y="686" width="200" height="200" as="geometry" />
        </mxCell>
        <mxCell id="ONzNmWFKcciWtL8QYSna-128" value="Cliente" style="rounded=0;whiteSpace=wrap;html=1;fontSize=25;strokeWidth=3;fillColor=#f2e7ac;" vertex="1" parent="1">
          <mxGeometry x="1082" y="845" width="110" height="200" as="geometry" />
        </mxCell>
        <mxCell id="ONzNmWFKcciWtL8QYSna-129" value="redirecionamento para tela de comprovante e politica de emissão de senha" style="rounded=0;whiteSpace=wrap;html=1;fontSize=25;strokeWidth=3;fillColor=#cf89d9;" vertex="1" parent="1">
          <mxGeometry x="1506" y="531" width="200" height="200" as="geometry" />
        </mxCell>
        <mxCell id="ONzNmWFKcciWtL8QYSna-130" value="exibir tela de likert" style="rounded=0;whiteSpace=wrap;html=1;fontSize=25;strokeWidth=3;fillColor=#01bcd2;strokeColor=default;" vertex="1" parent="1">
          <mxGeometry x="2202" y="693" width="200" height="200" as="geometry" />
        </mxCell>
        <mxCell id="ONzNmWFKcciWtL8QYSna-131" value="redirecionamento para tela de satisfação do fluxo&lt;br&gt;&quot;likert&quot;" style="rounded=0;whiteSpace=wrap;html=1;fontSize=24;strokeWidth=3;fillColor=#cf89d9;" vertex="1" parent="1">
          <mxGeometry x="2056" y="525" width="200" height="200" as="geometry" />
        </mxCell>
        <mxCell id="ONzNmWFKcciWtL8QYSna-132" value="enviou &lt;br&gt;satisfação escolhida" style="rounded=0;whiteSpace=wrap;html=1;fontSize=25;strokeWidth=3;fillColor=#f2a413;strokeColor=#000000;" vertex="1" parent="1">
          <mxGeometry x="2967" y="693" width="200" height="200" as="geometry" />
        </mxCell>
        <mxCell id="ONzNmWFKcciWtL8QYSna-133" value="escolher o quão satisfaito está com o fluxo de auto atendimento" style="rounded=0;whiteSpace=wrap;html=1;fontSize=25;strokeWidth=3;fillColor=#01bcd2;strokeColor=default;" vertex="1" parent="1">
          <mxGeometry x="2755" y="693" width="200" height="200" as="geometry" />
        </mxCell>
        <mxCell id="ONzNmWFKcciWtL8QYSna-134" value="Cliente" style="rounded=0;whiteSpace=wrap;html=1;fontSize=25;strokeWidth=3;fillColor=#f2e7ac;" vertex="1" parent="1">
          <mxGeometry x="2679" y="852" width="110" height="200" as="geometry" />
        </mxCell>
        <mxCell id="ONzNmWFKcciWtL8QYSna-135" value="Sistema emite pedido para cozinha" style="rounded=0;whiteSpace=wrap;html=1;fontSize=24;strokeWidth=3;fillColor=#cf89d9;" vertex="1" parent="1">
          <mxGeometry x="3468" y="531" width="200" height="200" as="geometry" />
        </mxCell>
        <mxCell id="ONzNmWFKcciWtL8QYSna-136" value="gerou pedido para a cozinha" style="rounded=0;whiteSpace=wrap;html=1;fontSize=25;strokeWidth=3;fillColor=#f2a413;strokeColor=#000000;" vertex="1" parent="1">
          <mxGeometry x="3823" y="696" width="200" height="200" as="geometry" />
        </mxCell>
        <mxCell id="ONzNmWFKcciWtL8QYSna-137" style="edgeStyle=orthogonalEdgeStyle;rounded=0;orthogonalLoop=1;jettySize=auto;html=1;entryX=0;entryY=0.5;entryDx=0;entryDy=0;" edge="1" parent="1" source="ONzNmWFKcciWtL8QYSna-138" target="ONzNmWFKcciWtL8QYSna-135">
          <mxGeometry relative="1" as="geometry" />
        </mxCell>
        <mxCell id="ONzNmWFKcciWtL8QYSna-138" value="Impressora e&amp;nbsp;tablet de pedidos" style="rounded=0;whiteSpace=wrap;html=1;fontSize=25;strokeWidth=3;fillColor=#8dc774;" vertex="1" parent="1">
          <mxGeometry x="3178" y="355" width="200" height="200" as="geometry" />
        </mxCell>
        <mxCell id="ONzNmWFKcciWtL8QYSna-139" value="Atualização do status do pedido" style="rounded=0;whiteSpace=wrap;html=1;fontSize=24;strokeWidth=3;fillColor=#cf89d9;" vertex="1" parent="1">
          <mxGeometry x="3972" y="537" width="200" height="200" as="geometry" />
        </mxCell>
        <mxCell id="ONzNmWFKcciWtL8QYSna-140" value="visualizar pedido&lt;br&gt;impresso / tablet" style="rounded=0;whiteSpace=wrap;html=1;fontSize=25;strokeWidth=3;fillColor=#01bcd2;strokeColor=default;" vertex="1" parent="1">
          <mxGeometry x="4652" y="694.5" width="200" height="200" as="geometry" />
        </mxCell>
        <mxCell id="ONzNmWFKcciWtL8QYSna-141" value="Cozinheiro" style="rounded=0;whiteSpace=wrap;html=1;fontSize=21;strokeWidth=3;fillColor=#f2e7ac;" vertex="1" parent="1">
          <mxGeometry x="4612" y="865.5" width="110" height="200" as="geometry" />
        </mxCell>
        <mxCell id="ONzNmWFKcciWtL8QYSna-142" style="edgeStyle=orthogonalEdgeStyle;rounded=0;orthogonalLoop=1;jettySize=auto;html=1;entryX=0;entryY=0.5;entryDx=0;entryDy=0;" edge="1" parent="1" source="ONzNmWFKcciWtL8QYSna-143" target="ONzNmWFKcciWtL8QYSna-139">
          <mxGeometry relative="1" as="geometry" />
        </mxCell>
        <mxCell id="ONzNmWFKcciWtL8QYSna-143" value="painel de senhas dos pedidos" style="rounded=0;whiteSpace=wrap;html=1;fontSize=25;strokeWidth=3;fillColor=#8dc774;" vertex="1" parent="1">
          <mxGeometry x="3701" y="345" width="200" height="200" as="geometry" />
        </mxCell>
        <mxCell id="ONzNmWFKcciWtL8QYSna-144" style="edgeStyle=orthogonalEdgeStyle;rounded=0;orthogonalLoop=1;jettySize=auto;html=1;entryX=0.5;entryY=1;entryDx=0;entryDy=0;" edge="1" parent="1" source="ONzNmWFKcciWtL8QYSna-145" target="ONzNmWFKcciWtL8QYSna-139">
          <mxGeometry relative="1" as="geometry">
            <Array as="points">
              <mxPoint x="4232" y="986" />
              <mxPoint x="4072" y="986" />
            </Array>
          </mxGeometry>
        </mxCell>
        <mxCell id="ONzNmWFKcciWtL8QYSna-145" value="&lt;span style=&quot;font-size: 15px;&quot;&gt;Comandos no tablet &lt;br&gt;refletem no painel&lt;/span&gt;" style="rhombus;whiteSpace=wrap;html=1;fontSize=13;strokeWidth=3;fillColor=#fb7b80;" vertex="1" parent="1">
          <mxGeometry x="4132" y="1005" width="200" height="206" as="geometry" />
        </mxCell>
        <mxCell id="ONzNmWFKcciWtL8QYSna-146" value="" style="ellipse;whiteSpace=wrap;html=1;fillColor=none;strokeColor=#b85450;strokeWidth=2;" vertex="1" parent="1">
          <mxGeometry x="-6796" y="232" width="1990" height="2040" as="geometry" />
        </mxCell>
        <mxCell id="ONzNmWFKcciWtL8QYSna-147" value="" style="ellipse;whiteSpace=wrap;html=1;fillColor=none;strokeColor=#b85450;strokeWidth=2;" vertex="1" parent="1">
          <mxGeometry x="646" y="1140" width="3511" height="1230" as="geometry" />
        </mxCell>
        <mxCell id="ONzNmWFKcciWtL8QYSna-148" value="Atualizar status do pedido no sistema" style="rounded=0;whiteSpace=wrap;html=1;fontSize=25;strokeWidth=3;fillColor=#01bcd2;strokeColor=default;" vertex="1" parent="1">
          <mxGeometry x="5176" y="697.5" width="200" height="200" as="geometry" />
        </mxCell>
        <mxCell id="ONzNmWFKcciWtL8QYSna-149" value="Cozinheiro" style="rounded=0;whiteSpace=wrap;html=1;fontSize=21;strokeWidth=3;fillColor=#f2e7ac;" vertex="1" parent="1">
          <mxGeometry x="5142" y="852" width="110" height="200" as="geometry" />
        </mxCell>
        <mxCell id="ONzNmWFKcciWtL8QYSna-150" value="Atualização do status do pedido reflete no painel de senhas" style="rounded=0;whiteSpace=wrap;html=1;fontSize=24;strokeWidth=3;fillColor=#cf89d9;" vertex="1" parent="1">
          <mxGeometry x="5528" y="555" width="200" height="200" as="geometry" />
        </mxCell>
        <mxCell id="ONzNmWFKcciWtL8QYSna-151" value="Atualizar status do pedido no painel" style="rounded=0;whiteSpace=wrap;html=1;fontSize=25;strokeWidth=3;fillColor=#01bcd2;strokeColor=default;" vertex="1" parent="1">
          <mxGeometry x="6847" y="703.75" width="200" height="200" as="geometry" />
        </mxCell>
        <mxCell id="ONzNmWFKcciWtL8QYSna-152" style="edgeStyle=orthogonalEdgeStyle;rounded=0;orthogonalLoop=1;jettySize=auto;html=1;entryX=0;entryY=0.5;entryDx=0;entryDy=0;" edge="1" parent="1" source="ONzNmWFKcciWtL8QYSna-153" target="ONzNmWFKcciWtL8QYSna-151">
          <mxGeometry relative="1" as="geometry" />
        </mxCell>
        <mxCell id="ONzNmWFKcciWtL8QYSna-153" value="tablet atendente" style="rounded=0;whiteSpace=wrap;html=1;fontSize=25;strokeWidth=3;fillColor=#8dc774;" vertex="1" parent="1">
          <mxGeometry x="6704" y="361" width="200" height="200" as="geometry" />
        </mxCell>
        <mxCell id="ONzNmWFKcciWtL8QYSna-154" value="Atualização do status do pedido reflete no painel de senhas" style="rounded=0;whiteSpace=wrap;html=1;fontSize=24;strokeWidth=3;fillColor=#cf89d9;" vertex="1" parent="1">
          <mxGeometry x="7176" y="535" width="200" height="200" as="geometry" />
        </mxCell>
        <mxCell id="ONzNmWFKcciWtL8QYSna-155" style="edgeStyle=orthogonalEdgeStyle;rounded=0;orthogonalLoop=1;jettySize=auto;html=1;entryX=0;entryY=0.5;entryDx=0;entryDy=0;" edge="1" parent="1" source="ONzNmWFKcciWtL8QYSna-156" target="ONzNmWFKcciWtL8QYSna-1">
          <mxGeometry relative="1" as="geometry" />
        </mxCell>
        <mxCell id="ONzNmWFKcciWtL8QYSna-156" value="Atualizou senha do pedido para &quot;PRONTO&quot;" style="rounded=0;whiteSpace=wrap;html=1;fontSize=25;strokeWidth=3;fillColor=#f2a413;strokeColor=#000000;fontStyle=0" vertex="1" parent="1">
          <mxGeometry x="7530" y="702.25" width="216.5" height="203" as="geometry" />
        </mxCell>
        <mxCell id="ONzNmWFKcciWtL8QYSna-157" value="Atendente" style="rounded=0;whiteSpace=wrap;html=1;fontSize=21;strokeWidth=3;fillColor=#f2e7ac;" vertex="1" parent="1">
          <mxGeometry x="6790" y="874" width="110" height="200" as="geometry" />
        </mxCell>
        <mxCell id="ONzNmWFKcciWtL8QYSna-158" value="Atualizar status do pedido no painel" style="rounded=0;whiteSpace=wrap;html=1;fontSize=25;strokeWidth=3;fillColor=#01bcd2;strokeColor=default;" vertex="1" parent="1">
          <mxGeometry x="8920" y="689.25" width="200" height="200" as="geometry" />
        </mxCell>
        <mxCell id="ONzNmWFKcciWtL8QYSna-159" value="atualizou status do pedido no sistema&lt;br&gt;&quot;FINALIZADO&quot;" style="rounded=0;whiteSpace=wrap;html=1;fontSize=25;strokeWidth=3;fillColor=#f2a413;strokeColor=#FF0000;fontStyle=0" vertex="1" parent="1">
          <mxGeometry x="8655" y="690.75" width="216.5" height="203" as="geometry" />
        </mxCell>
        <mxCell id="ONzNmWFKcciWtL8QYSna-160" value="Atualizar status do pedido no painel" style="rounded=0;whiteSpace=wrap;html=1;fontSize=25;strokeWidth=3;fillColor=#01bcd2;strokeColor=default;" vertex="1" parent="1">
          <mxGeometry x="8447" y="692.25" width="200" height="200" as="geometry" />
        </mxCell>
        <mxCell id="ONzNmWFKcciWtL8QYSna-161" value="Atualização do status do pedido reflete no painel de senhas" style="rounded=0;whiteSpace=wrap;html=1;fontSize=24;strokeWidth=3;fillColor=#cf89d9;" vertex="1" parent="1">
          <mxGeometry x="8776" y="523.5" width="200" height="200" as="geometry" />
        </mxCell>
        <mxCell id="ONzNmWFKcciWtL8QYSna-162" value="Atualizou senha do pedido para &quot;FINALIZADO&quot;" style="rounded=0;whiteSpace=wrap;html=1;fontSize=25;strokeWidth=3;fillColor=#f2a413;strokeColor=#000000;fontStyle=0" vertex="1" parent="1">
          <mxGeometry x="9130" y="690.75" width="216.5" height="203" as="geometry" />
        </mxCell>
        <mxCell id="ONzNmWFKcciWtL8QYSna-163" value="Atendente" style="rounded=0;whiteSpace=wrap;html=1;fontSize=21;strokeWidth=3;fillColor=#f2e7ac;" vertex="1" parent="1">
          <mxGeometry x="8390" y="862.5" width="110" height="200" as="geometry" />
        </mxCell>
        <mxCell id="ONzNmWFKcciWtL8QYSna-164" value="Text" style="text;html=1;strokeColor=none;fillColor=none;align=center;verticalAlign=middle;whiteSpace=wrap;rounded=0;" vertex="1" parent="1">
          <mxGeometry x="-620" y="622" width="60" height="30" as="geometry" />
        </mxCell>
        <mxCell id="ONzNmWFKcciWtL8QYSna-165" style="edgeStyle=orthogonalEdgeStyle;rounded=0;orthogonalLoop=1;jettySize=auto;html=1;entryX=0.5;entryY=0;entryDx=0;entryDy=0;" edge="1" parent="1" source="ONzNmWFKcciWtL8QYSna-166" target="ONzNmWFKcciWtL8QYSna-46">
          <mxGeometry relative="1" as="geometry" />
        </mxCell>
        <mxCell id="ONzNmWFKcciWtL8QYSna-166" value="API MERCADO PAGO" style="rounded=0;whiteSpace=wrap;html=1;fontSize=25;strokeWidth=3;fillColor=#f21d6b;" vertex="1" parent="1">
          <mxGeometry x="397" y="159" width="311" height="200" as="geometry" />
        </mxCell>
        <mxCell id="ONzNmWFKcciWtL8QYSna-167" value="" style="ellipse;whiteSpace=wrap;html=1;fillColor=none;strokeColor=#b85450;strokeWidth=2;" vertex="1" parent="1">
          <mxGeometry x="-5021" y="100" width="3404" height="1230" as="geometry" />
        </mxCell>
        <mxCell id="ONzNmWFKcciWtL8QYSna-168" value="" style="ellipse;whiteSpace=wrap;html=1;fillColor=none;strokeColor=#b85450;strokeWidth=2;" vertex="1" parent="1">
          <mxGeometry x="616" y="205" width="1161" height="1036" as="geometry" />
        </mxCell>
        <mxCell id="ONzNmWFKcciWtL8QYSna-169" value="" style="ellipse;whiteSpace=wrap;html=1;fillColor=none;strokeColor=#b85450;strokeWidth=2;" vertex="1" parent="1">
          <mxGeometry x="3308" y="58" width="6014" height="1389" as="geometry" />
        </mxCell>
        <mxCell id="ONzNmWFKcciWtL8QYSna-170" value="" style="rounded=0;whiteSpace=wrap;html=1;fontSize=25;strokeWidth=3;fillColor=#f2a413;" vertex="1" parent="1">
          <mxGeometry x="-3701" y="-688" width="200" height="200" as="geometry" />
        </mxCell>
        <mxCell id="ONzNmWFKcciWtL8QYSna-171" value="" style="rounded=0;whiteSpace=wrap;html=1;fontSize=25;strokeWidth=3;fillColor=#01bcd2;" vertex="1" parent="1">
          <mxGeometry x="-3931" y="-688" width="200" height="200" as="geometry" />
        </mxCell>
        <mxCell id="ONzNmWFKcciWtL8QYSna-172" value="" style="rounded=0;whiteSpace=wrap;html=1;fontSize=25;strokeWidth=3;fillColor=#cf89d9;" vertex="1" parent="1">
          <mxGeometry x="-4161" y="-688" width="200" height="200" as="geometry" />
        </mxCell>
        <mxCell id="ONzNmWFKcciWtL8QYSna-173" value="" style="rounded=0;whiteSpace=wrap;html=1;fontSize=25;strokeWidth=3;fillColor=#8dc774;" vertex="1" parent="1">
          <mxGeometry x="-3221" y="-683" width="200" height="200" as="geometry" />
        </mxCell>
        <mxCell id="ONzNmWFKcciWtL8QYSna-174" value="" style="rounded=0;whiteSpace=wrap;html=1;fontSize=25;strokeWidth=3;fillColor=#f21d6b;" vertex="1" parent="1">
          <mxGeometry x="-3451" y="-683" width="200" height="200" as="geometry" />
        </mxCell>
        <mxCell id="ONzNmWFKcciWtL8QYSna-175" value="" style="rounded=0;whiteSpace=wrap;html=1;fontSize=25;strokeWidth=3;fillColor=#f2e7ac;" vertex="1" parent="1">
          <mxGeometry x="-2991" y="-673" width="110" height="200" as="geometry" />
        </mxCell>
        <mxCell id="ONzNmWFKcciWtL8QYSna-176" value="" style="rhombus;whiteSpace=wrap;html=1;fontSize=25;strokeWidth=3;fillColor=#fb7b80;" vertex="1" parent="1">
          <mxGeometry x="-2851" y="-683" width="200" height="206" as="geometry" />
        </mxCell>
        <mxCell id="ONzNmWFKcciWtL8QYSna-177" value="" style="rounded=0;whiteSpace=wrap;html=1;strokeWidth=3;fontSize=16;" vertex="1" parent="1">
          <mxGeometry x="-4628" y="-650" width="400" height="170" as="geometry" />
        </mxCell>
        <mxCell id="ONzNmWFKcciWtL8QYSna-178" value="" style="group" connectable="0" vertex="1" parent="1">
          <mxGeometry x="-4598" y="-580" width="95" height="20" as="geometry" />
        </mxCell>
        <mxCell id="ONzNmWFKcciWtL8QYSna-179" value="" style="rounded=0;whiteSpace=wrap;html=1;fontSize=16;strokeWidth=3;fillColor=#f2a413;" vertex="1" parent="ONzNmWFKcciWtL8QYSna-178">
          <mxGeometry y="2.5" width="15" height="15" as="geometry" />
        </mxCell>
        <mxCell id="ONzNmWFKcciWtL8QYSna-180" value="Eventos" style="text;html=1;strokeColor=none;fillColor=none;align=left;verticalAlign=middle;whiteSpace=wrap;rounded=0;fontSize=16;" vertex="1" parent="ONzNmWFKcciWtL8QYSna-178">
          <mxGeometry x="25" width="70" height="20" as="geometry" />
        </mxCell>
        <mxCell id="ONzNmWFKcciWtL8QYSna-181" value="" style="group;fillColor=#ffffff;" connectable="0" vertex="1" parent="1">
          <mxGeometry x="-4598" y="-550" width="95" height="20" as="geometry" />
        </mxCell>
        <mxCell id="ONzNmWFKcciWtL8QYSna-182" value="" style="rounded=0;whiteSpace=wrap;html=1;fontSize=16;strokeWidth=3;fillColor=#01BCD2;" vertex="1" parent="ONzNmWFKcciWtL8QYSna-181">
          <mxGeometry y="2.5" width="15" height="15" as="geometry" />
        </mxCell>
        <mxCell id="ONzNmWFKcciWtL8QYSna-183" value="Comandos" style="text;html=1;strokeColor=none;fillColor=none;align=left;verticalAlign=middle;whiteSpace=wrap;rounded=0;fontSize=16;" vertex="1" parent="ONzNmWFKcciWtL8QYSna-181">
          <mxGeometry x="25" width="70" height="20" as="geometry" />
        </mxCell>
        <mxCell id="ONzNmWFKcciWtL8QYSna-184" value="" style="group" connectable="0" vertex="1" parent="1">
          <mxGeometry x="-4598" y="-520" width="95" height="20" as="geometry" />
        </mxCell>
        <mxCell id="ONzNmWFKcciWtL8QYSna-185" value="" style="rounded=0;whiteSpace=wrap;html=1;fontSize=16;strokeWidth=3;fillColor=#F2E7AC;" vertex="1" parent="ONzNmWFKcciWtL8QYSna-184">
          <mxGeometry y="2.5" width="15" height="15" as="geometry" />
        </mxCell>
        <mxCell id="ONzNmWFKcciWtL8QYSna-186" value="Atores" style="text;html=1;strokeColor=none;fillColor=none;align=left;verticalAlign=middle;whiteSpace=wrap;rounded=0;fontSize=16;" vertex="1" parent="ONzNmWFKcciWtL8QYSna-184">
          <mxGeometry x="25" width="70" height="20" as="geometry" />
        </mxCell>
        <mxCell id="ONzNmWFKcciWtL8QYSna-187" value="" style="group" connectable="0" vertex="1" parent="1">
          <mxGeometry x="-4478" y="-580" width="95" height="20" as="geometry" />
        </mxCell>
        <mxCell id="ONzNmWFKcciWtL8QYSna-188" value="" style="rounded=0;whiteSpace=wrap;html=1;fontSize=16;strokeWidth=3;fillColor=#CF89D9;" vertex="1" parent="ONzNmWFKcciWtL8QYSna-187">
          <mxGeometry y="2.5" width="15" height="15" as="geometry" />
        </mxCell>
        <mxCell id="ONzNmWFKcciWtL8QYSna-189" value="Politicas" style="text;html=1;strokeColor=none;fillColor=none;align=left;verticalAlign=middle;whiteSpace=wrap;rounded=0;fontSize=16;" vertex="1" parent="ONzNmWFKcciWtL8QYSna-187">
          <mxGeometry x="25" width="70" height="20" as="geometry" />
        </mxCell>
        <mxCell id="ONzNmWFKcciWtL8QYSna-190" value="" style="group" connectable="0" vertex="1" parent="1">
          <mxGeometry x="-4478" y="-552.5" width="170" height="20" as="geometry" />
        </mxCell>
        <mxCell id="ONzNmWFKcciWtL8QYSna-191" value="" style="rounded=0;whiteSpace=wrap;html=1;fontSize=16;strokeWidth=3;fillColor=#FB7B80;" vertex="1" parent="ONzNmWFKcciWtL8QYSna-190">
          <mxGeometry y="2.5" width="15" height="15" as="geometry" />
        </mxCell>
        <mxCell id="ONzNmWFKcciWtL8QYSna-192" value="Pontos de atenção" style="text;html=1;strokeColor=none;fillColor=none;align=left;verticalAlign=middle;whiteSpace=wrap;rounded=0;fontSize=16;" vertex="1" parent="ONzNmWFKcciWtL8QYSna-190">
          <mxGeometry x="25" width="145" height="20" as="geometry" />
        </mxCell>
        <mxCell id="ONzNmWFKcciWtL8QYSna-193" value="" style="group" connectable="0" vertex="1" parent="1">
          <mxGeometry x="-4478" y="-520" width="190" height="20" as="geometry" />
        </mxCell>
        <mxCell id="ONzNmWFKcciWtL8QYSna-194" value="" style="rounded=0;whiteSpace=wrap;html=1;fontSize=16;strokeWidth=3;fillColor=#8DC774;" vertex="1" parent="ONzNmWFKcciWtL8QYSna-193">
          <mxGeometry y="2.5" width="15" height="15" as="geometry" />
        </mxCell>
        <mxCell id="ONzNmWFKcciWtL8QYSna-195" value="Modelos de linguagem" style="text;html=1;strokeColor=none;fillColor=none;align=left;verticalAlign=middle;whiteSpace=wrap;rounded=0;fontSize=16;" vertex="1" parent="ONzNmWFKcciWtL8QYSna-193">
          <mxGeometry x="25" width="165" height="20" as="geometry" />
        </mxCell>
        <mxCell id="ONzNmWFKcciWtL8QYSna-196" value="" style="group" connectable="0" vertex="1" parent="1">
          <mxGeometry x="-4358" y="-580" width="95" height="20" as="geometry" />
        </mxCell>
        <mxCell id="ONzNmWFKcciWtL8QYSna-197" value="" style="rounded=0;whiteSpace=wrap;html=1;fontSize=16;strokeWidth=3;fillColor=#F2C12E;" vertex="1" parent="ONzNmWFKcciWtL8QYSna-196">
          <mxGeometry y="2.5" width="15" height="15" as="geometry" />
        </mxCell>
        <mxCell id="ONzNmWFKcciWtL8QYSna-198" value="Agregados" style="text;html=1;strokeColor=none;fillColor=none;align=left;verticalAlign=middle;whiteSpace=wrap;rounded=0;fontSize=16;" vertex="1" parent="ONzNmWFKcciWtL8QYSna-196">
          <mxGeometry x="25" width="70" height="20" as="geometry" />
        </mxCell>
        <mxCell id="ONzNmWFKcciWtL8QYSna-199" value="Legenda:" style="text;html=1;strokeColor=none;fillColor=none;align=left;verticalAlign=middle;whiteSpace=wrap;rounded=0;fontSize=18;fontStyle=1" vertex="1" parent="1">
          <mxGeometry x="-4608" y="-630" width="70" height="20" as="geometry" />
        </mxCell>
        <mxCell id="ONzNmWFKcciWtL8QYSna-200" value="" style="rounded=0;whiteSpace=wrap;html=1;fontSize=25;strokeWidth=3;fillColor=#cf89d9;" vertex="1" parent="1">
          <mxGeometry x="-4151" y="-678" width="200" height="200" as="geometry" />
        </mxCell>
        <mxCell id="ONzNmWFKcciWtL8QYSna-201" value="" style="rounded=0;whiteSpace=wrap;html=1;fontSize=25;strokeWidth=3;fillColor=#cf89d9;" vertex="1" parent="1">
          <mxGeometry x="-4141" y="-668" width="200" height="200" as="geometry" />
        </mxCell>
        <mxCell id="ONzNmWFKcciWtL8QYSna-202" value="" style="rounded=0;whiteSpace=wrap;html=1;fontSize=25;strokeWidth=3;fillColor=#f21d6b;" vertex="1" parent="1">
          <mxGeometry x="-3441" y="-673" width="200" height="200" as="geometry" />
        </mxCell>
        <mxCell id="ONzNmWFKcciWtL8QYSna-203" value="" style="rounded=0;whiteSpace=wrap;html=1;fontSize=25;strokeWidth=3;fillColor=#f21d6b;" vertex="1" parent="1">
          <mxGeometry x="-3431" y="-663" width="200" height="200" as="geometry" />
        </mxCell>
        <mxCell id="ONzNmWFKcciWtL8QYSna-204" value="" style="rounded=0;whiteSpace=wrap;html=1;fontSize=25;strokeWidth=3;fillColor=#8dc774;" vertex="1" parent="1">
          <mxGeometry x="-3211" y="-673" width="200" height="200" as="geometry" />
        </mxCell>
        <mxCell id="ONzNmWFKcciWtL8QYSna-205" value="" style="rounded=0;whiteSpace=wrap;html=1;fontSize=25;strokeWidth=3;fillColor=#8dc774;" vertex="1" parent="1">
          <mxGeometry x="-3201" y="-663" width="200" height="200" as="geometry" />
        </mxCell>
        <mxCell id="ONzNmWFKcciWtL8QYSna-206" value="" style="rounded=0;whiteSpace=wrap;html=1;fontSize=25;strokeWidth=3;fillColor=#01bcd2;" vertex="1" parent="1">
          <mxGeometry x="-3921" y="-678" width="200" height="200" as="geometry" />
        </mxCell>
        <mxCell id="ONzNmWFKcciWtL8QYSna-207" value="" style="rounded=0;whiteSpace=wrap;html=1;fontSize=25;strokeWidth=3;fillColor=#01bcd2;" vertex="1" parent="1">
          <mxGeometry x="-3911" y="-668" width="200" height="200" as="geometry" />
        </mxCell>
        <mxCell id="ONzNmWFKcciWtL8QYSna-208" value="" style="rounded=0;whiteSpace=wrap;html=1;fontSize=25;strokeWidth=3;fillColor=#f2a413;" vertex="1" parent="1">
          <mxGeometry x="-3691" y="-678" width="200" height="200" as="geometry" />
        </mxCell>
        <mxCell id="ONzNmWFKcciWtL8QYSna-209" value="" style="rounded=0;whiteSpace=wrap;html=1;fontSize=25;strokeWidth=3;fillColor=#f2a413;" vertex="1" parent="1">
          <mxGeometry x="-3681" y="-668" width="200" height="200" as="geometry" />
        </mxCell>
        <mxCell id="ONzNmWFKcciWtL8QYSna-210" value="" style="rounded=0;whiteSpace=wrap;html=1;fontSize=25;strokeWidth=3;fillColor=#f2e7ac;" vertex="1" parent="1">
          <mxGeometry x="-2981" y="-663" width="110" height="200" as="geometry" />
        </mxCell>
        <mxCell id="ONzNmWFKcciWtL8QYSna-211" value="" style="rounded=0;whiteSpace=wrap;html=1;fontSize=25;strokeWidth=3;fillColor=#f2e7ac;" vertex="1" parent="1">
          <mxGeometry x="-2971" y="-653" width="110" height="200" as="geometry" />
        </mxCell>
        <mxCell id="ONzNmWFKcciWtL8QYSna-212" value="" style="rhombus;whiteSpace=wrap;html=1;fontSize=25;strokeWidth=3;fillColor=#fb7b80;" vertex="1" parent="1">
          <mxGeometry x="-2841" y="-673" width="200" height="206" as="geometry" />
        </mxCell>
        <mxCell id="ONzNmWFKcciWtL8QYSna-213" value="" style="rhombus;whiteSpace=wrap;html=1;fontSize=25;strokeWidth=3;fillColor=#fb7b80;" vertex="1" parent="1">
          <mxGeometry x="-2831" y="-663" width="200" height="206" as="geometry" />
        </mxCell>
        <mxCell id="ONzNmWFKcciWtL8QYSna-214" value="" style="rounded=0;whiteSpace=wrap;html=1;fontSize=25;strokeWidth=3;fillColor=#f2a413;" vertex="1" parent="1">
          <mxGeometry x="-3671" y="-657" width="200" height="200" as="geometry" />
        </mxCell>
        <mxCell id="ONzNmWFKcciWtL8QYSna-215" value="" style="rounded=0;whiteSpace=wrap;html=1;fontSize=25;strokeWidth=3;fillColor=#F2C12E;" vertex="1" parent="1">
          <mxGeometry x="-2553" y="-670" width="400" height="200" as="geometry" />
        </mxCell>
        <mxCell id="ONzNmWFKcciWtL8QYSna-216" value="GERENCIAMENTO" style="text;html=1;strokeColor=none;fillColor=none;align=center;verticalAlign=middle;whiteSpace=wrap;rounded=0;fontSize=80;rotation=90;horizontal=0;" vertex="1" parent="1">
          <mxGeometry x="-5827" y="1990" width="133" height="772" as="geometry" />
        </mxCell>
        <mxCell id="ONzNmWFKcciWtL8QYSna-217" value="CLIENTE (CADASTRO)" style="text;html=1;strokeColor=none;fillColor=none;align=center;verticalAlign=middle;whiteSpace=wrap;rounded=0;fontSize=80;rotation=90;horizontal=0;" vertex="1" parent="1">
          <mxGeometry x="-2603" y="983" width="133" height="1078" as="geometry" />
        </mxCell>
        <mxCell id="ONzNmWFKcciWtL8QYSna-218" value="PAGAMENTO" style="text;html=1;strokeColor=none;fillColor=none;align=center;verticalAlign=middle;whiteSpace=wrap;rounded=0;fontSize=80;rotation=90;horizontal=0;" vertex="1" parent="1">
          <mxGeometry x="1130" y="-530" width="133" height="1078" as="geometry" />
        </mxCell>
        <mxCell id="ONzNmWFKcciWtL8QYSna-219" value="PEDIDO" style="text;html=1;strokeColor=none;fillColor=none;align=center;verticalAlign=middle;whiteSpace=wrap;rounded=0;fontSize=80;rotation=90;horizontal=0;" vertex="1" parent="1">
          <mxGeometry x="6394" y="-650" width="133" height="1078" as="geometry" />
        </mxCell>
        <mxCell id="ONzNmWFKcciWtL8QYSna-220" value="" style="ellipse;whiteSpace=wrap;html=1;fillColor=none;strokeColor=#b85450;strokeWidth=2;" vertex="1" parent="1">
          <mxGeometry x="-1567" y="200" width="2169" height="1389" as="geometry" />
        </mxCell>
        <mxCell id="ONzNmWFKcciWtL8QYSna-221" style="edgeStyle=orthogonalEdgeStyle;rounded=0;orthogonalLoop=1;jettySize=auto;html=1;entryX=0;entryY=0.5;entryDx=0;entryDy=0;exitX=0;exitY=0.5;exitDx=0;exitDy=0;startArrow=block;startFill=1;endArrow=block;endFill=1;strokeWidth=14;" edge="1" parent="1" source="ONzNmWFKcciWtL8QYSna-222" target="ONzNmWFKcciWtL8QYSna-219">
          <mxGeometry relative="1" as="geometry">
            <Array as="points">
              <mxPoint x="-471" y="-555" />
              <mxPoint x="6461" y="-555" />
            </Array>
          </mxGeometry>
        </mxCell>
        <mxCell id="ONzNmWFKcciWtL8QYSna-222" value="PEDIDO" style="text;html=1;strokeColor=none;fillColor=none;align=center;verticalAlign=middle;whiteSpace=wrap;rounded=0;fontSize=80;rotation=90;horizontal=0;" vertex="1" parent="1">
          <mxGeometry x="-538" y="-530" width="133" height="1078" as="geometry" />
        </mxCell>
        <mxCell id="ONzNmWFKcciWtL8QYSna-223" value="" style="ellipse;whiteSpace=wrap;html=1;fillColor=none;strokeColor=#b85450;strokeWidth=2;" vertex="1" parent="1">
          <mxGeometry x="1823" y="110" width="1485" height="1092" as="geometry" />
        </mxCell>
        <mxCell id="ONzNmWFKcciWtL8QYSna-224" value="SATISFAÇÃO&amp;nbsp;" style="text;html=1;strokeColor=none;fillColor=none;align=center;verticalAlign=middle;whiteSpace=wrap;rounded=0;fontSize=80;rotation=90;horizontal=0;" vertex="1" parent="1">
          <mxGeometry x="2572" y="-575" width="133" height="1078" as="geometry" />
        </mxCell>
      </root>
    </mxGraphModel>
  </diagram>
</mxfile>
